<svg xmlns="http://www.w3.org/2000/svg" viewBox="0 0 400 500" role="img" aria-label="Placeholder: hills at dusk">
  <defs>
    <linearGradient id="sky" x1="0" y1="0" x2="0" y2="1">
      <stop offset="0" stop-color="#f5f1e3"/>
      <stop offset="0.7" stop-color="#e9dcb2"/>
      <stop offset="1" stop-color="#d8c48f"/>
    </linearGradient>
  </defs>
  <rect width="400" height="500" fill="url(#sky)"/>
  <circle cx="264" cy="240" r="46" fill="#8f6c14" opacity="0.85"/>
  <g fill="none" stroke="#5b6350" stroke-width="2.5" stroke-linecap="round">
    <path d="M96 150c10-8 20-8 30 0"/>
    <path d="M140 128c8-7 17-7 25 0"/>
  </g>
  <path d="M0 330C70 290 130 300 200 322C280 348 340 336 400 306V500H0Z" fill="#5e7d52"/>
  <path d="M0 396C90 356 170 380 240 398C310 416 360 404 400 384V500H0Z" fill="#2d5232"/>
  <path d="M0 458C80 438 180 452 260 462C320 469 370 464 400 456V500H0Z" fill="#262f1d"/>
  <g>
    <rect x="96" y="20" width="208" height="26" fill="#fcf9ef" stroke="#dcd2b6"/>
    <text x="200" y="37" text-anchor="middle" font-family="Georgia, serif" font-style="italic" font-size="13" fill="#5b6350">placeholder — add your photos</text>
  </g>
</svg>
