<svg xmlns="http://www.w3.org/2000/svg" viewBox="0 0 1200 630" role="img" aria-label="Nathan Mathieu">
  <rect width="1200" height="630" fill="#f5f1e3" />
  <rect x="0" y="0" width="1200" height="12" fill="#2d5232" />
  <g transform="translate(90 250)">
    <rect x="-30" y="-140" width="120" height="120" rx="16" fill="#2d5232" />
    <g transform="translate(30 -80)">
      <path d="M0 -46C-22 -35 -34 -20 -34 0c0 16 12 28 34 32 22 -4 34 -16 34 -32 0 -20 -12 -35 -34 -46z"
        fill="none" stroke="#f5f1e3" stroke-width="6" stroke-linejoin="round" />
      <path d="M0 -38v76" fill="none" stroke="#f5f1e3" stroke-width="5" stroke-linecap="round" />
      <path d="M0 -14l-15 9M0 -14l15 9M0 6l-13 8M0 6l13 8"
        fill="none" stroke="#8f6c14" stroke-width="4.5" stroke-linecap="round" />
    </g>
  </g>
  <text x="90" y="330" font-family="Georgia, 'Times New Roman', serif" font-size="86" font-weight="700" fill="#262f1d">Nathan Mathieu</text>
  <text x="94" y="392" font-family="Georgia, serif" font-size="34" letter-spacing="6" fill="#8f6c14">PHD STUDENT · PLANT BIOLOGY</text>
  <text x="94" y="452" font-family="Arial, Helvetica, sans-serif" font-size="30" fill="#5b6350">University of California, Riverside</text>
  <line x1="94" y1="500" x2="420" y2="500" stroke="#5e7d52" stroke-width="2" />
</svg>
